<svg xmlns="http://www.w3.org/2000/svg" viewBox="0 0 500 500"><g id="freepik--background-simple--inject-554"><path d="M462.15,366.65c27.34-54.67,29.19-127.51,10.31-185.9C456.2,130.47,420,92.12,378.26,69.28,329.79,42.79,272,34.9,220,51.62c-13.69,4.4-27,8.43-39.91,15.66-52.88,29.62-42.68,102.61-61.23,128-15.61,21.36-45.46,15.06-64.28,31.43C3.81,270.88,3.68,382.53,62.27,417.43,124.43,454.45,394.42,502.05,462.15,366.65Z" style="fill:#638BDF"></path><path d="M462.15,366.65c27.34-54.67,29.19-127.51,10.31-185.9C456.2,130.47,420,92.12,378.26,69.28,329.79,42.79,272,34.9,220,51.62c-13.69,4.4-27,8.43-39.91,15.66-52.88,29.62-42.68,102.61-61.23,128-15.61,21.36-45.46,15.06-64.28,31.43C3.81,270.88,3.68,382.53,62.27,417.43,124.43,454.45,394.42,502.05,462.15,366.65Z" style="fill:#fff;opacity:0.8"></path></g><g id="freepik--Plant--inject-554"><path d="M434.81,439.45c-1.54.46-5.09-.07-5.09-.07s1.06-2.24,1.14-2.37c1-1.54,3.8-3.93,5.77-3.4a2.41,2.41,0,0,1,1.55,3.25A5,5,0,0,1,434.81,439.45Z" style="fill:#263238"></path><path d="M401.65,438s-.35-2.45-.35-2.61c0-1.83,1-5.37,2.93-6a2.41,2.41,0,0,1,3.09,1.85,5.1,5.1,0,0,1-1.38,4C404.9,436.44,401.65,438,401.65,438Z" style="fill:#263238"></path><path d="M394.05,431.37a13.73,13.73,0,0,0,4.23.92c.31.43.64.89,1,1.41.61.92,1.29,2,2,3.15.18.31.36.66.54,1-.42-.5-1-1.17-1.07-1.23-1.18-1.09-4.1-2.5-5.66-1.61a2.12,2.12,0,0,0-.6,3.11,4.44,4.44,0,0,0,3.45,1.45,14.28,14.28,0,0,0,4.2-1.14c.38.74.76,1.51,1.11,2.34a27.65,27.65,0,0,1,1.56,4.63l-.09,0c-.34-.5-1.06-1.55-1.13-1.63-1.05-1.21-3.8-2.93-5.45-2.22a2.12,2.12,0,0,0-.93,3,4.43,4.43,0,0,0,3.26,1.83,15.27,15.27,0,0,0,4.4-.71,37.13,37.13,0,0,1,.69,4.81c.1,1.2.15,2.41.19,3.63-.22-.36-1.17-1.73-1.24-1.82-1.06-1.22-3.8-2.94-5.46-2.23a2.12,2.12,0,0,0-.93,3,4.45,4.45,0,0,0,3.26,1.83,14.85,14.85,0,0,0,4.38-.7c0,.56,0,1.11,0,1.67,0,1.81.08,3.63.17,5.42,0,.62.09,1.23.14,1.85-.35-.53-1-1.49-1.07-1.56-1.06-1.22-3.8-2.94-5.46-2.23a2.12,2.12,0,0,0-.93,3,4.41,4.41,0,0,0,3.26,1.83,14.3,14.3,0,0,0,4.23-.65c.09,1,.21,2,.37,3,.08.42.13.86.23,1.26l.27,1.22c.21.82.41,1.58.62,2.34l.33,1.12c-.27-.6-.73-1.53-.78-1.61-.85-1.35-3.31-3.47-5-3a2.13,2.13,0,0,0-1.38,2.85,4.45,4.45,0,0,0,2.95,2.3,14.6,14.6,0,0,0,4.41,0c.27.91.54,1.79.81,2.62.22.67.44,1.3.65,1.9h1.18c-.27-.7-.54-1.45-.82-2.25s-.52-1.52-.79-2.33a15.23,15.23,0,0,0,3.74-2.05,20.85,20.85,0,0,0,2.37,1.33c-.28.91-.53,1.8-.76,2.63s-.49,1.84-.7,2.67h1.16c.17-.75.35-1.54.57-2.4s.4-1.55.63-2.37a14.73,14.73,0,0,0,4.39.33,4.47,4.47,0,0,0,3.1-2.09,2.13,2.13,0,0,0-1.18-2.94c-1.7-.57-4.3,1.37-5.25,2.67-.06.08-.67,1.14-1,1.69.14-.5.28-1,.43-1.5.22-.74.47-1.52.71-2.27l.42-1.17c.13-.4.31-.77.46-1.16.24-.56.52-1.13.79-1.7a13.55,13.55,0,0,0,4.09.91,4.44,4.44,0,0,0,3.38-1.59,2.12,2.12,0,0,0-.72-3.08c-1.6-.82-4.46.7-5.6,1.84l-.5.62c.29-.55.57-1.1.87-1.65.87-1.55,1.81-3.1,2.74-4.66.19-.33.38-.66.58-1a14.19,14.19,0,0,0,4.19.95,4.44,4.44,0,0,0,3.39-1.59,2.13,2.13,0,0,0-.73-3.08c-1.6-.82-4.46.7-5.59,1.84l-.58.71c.49-.85,1-1.71,1.43-2.58a37.86,37.86,0,0,0,2-4.59,14.51,14.51,0,0,0,4.32,1,4.44,4.44,0,0,0,3.38-1.59,2.13,2.13,0,0,0-.72-3.08c-1.6-.82-4.46.7-5.6,1.84-.08.08-1,1.23-1.31,1.65a.08.08,0,0,0,0-.05,27.58,27.58,0,0,0,1.17-4.79,37.89,37.89,0,0,0,.42-4.39c.07-1.36,0-2.62,0-3.72,0-.6-.05-1.15-.08-1.66l0,0s.78-2,.81-2.16c.38-1.56.19-4.8-1.34-5.73a2.12,2.12,0,0,0-3,1,4.44,4.44,0,0,0,.4,3.72,14,14,0,0,0,3,3.1c0,.53.05,1.1.06,1.73,0,1.11,0,2.35-.1,3.71,0,.36-.06.75-.1,1.12-.07-.64-.19-1.53-.21-1.61-.38-1.56-2-4.35-3.83-4.47a2.13,2.13,0,0,0-2.22,2.26,4.49,4.49,0,0,0,2.07,3.12,14.43,14.43,0,0,0,4.14,1.36c-.09.83-.2,1.69-.36,2.57a27.37,27.37,0,0,1-1.26,4.72l-.1,0c0-.6,0-1.87,0-2-.21-1.59-1.55-4.54-3.32-4.86a2.12,2.12,0,0,0-2.44,2,4.47,4.47,0,0,0,1.71,3.33,15.15,15.15,0,0,0,4.06,1.84,38,38,0,0,1-2.08,4.39c-.57,1.05-1.2,2.1-1.84,3.14,0-.43,0-2.1,0-2.22-.21-1.59-1.56-4.54-3.32-4.86a2.13,2.13,0,0,0-2.45,2,4.47,4.47,0,0,0,1.71,3.32,14.58,14.58,0,0,0,4,1.83c-.29.47-.58.95-.88,1.42-1,1.53-1.93,3.07-2.84,4.62-.32.53-.61,1.07-.91,1.61,0-.63,0-1.79,0-1.89-.21-1.59-1.56-4.54-3.32-4.87a2.13,2.13,0,0,0-2.45,2,4.47,4.47,0,0,0,1.71,3.33,14,14,0,0,0,3.89,1.78c-.48.9-.94,1.81-1.35,2.72-.17.4-.37.79-.51,1.18s-.3.78-.44,1.16c-.28.8-.54,1.55-.77,2.3-.13.38-.23.74-.35,1.11.1-.64.24-1.67.24-1.76,0-1.61-.85-4.73-2.55-5.31a2.12,2.12,0,0,0-2.72,1.61,1.82,1.82,0,0,0-.06.46,8.3,8.3,0,0,0-1.4,3.93c0,.1.07,1.32.13,2-.16-.49-.32-1-.47-1.49-.23-.74-.45-1.52-.67-2.28-.1-.4-.19-.8-.29-1.21s-.17-.81-.25-1.22c-.11-.6-.2-1.23-.28-1.86a13.64,13.64,0,0,0,3.91-1.49,4.45,4.45,0,0,0,1.94-3.19,2.13,2.13,0,0,0-2.3-2.18c-1.79.2-3.33,3.05-3.65,4.62,0,.06-.05.4-.08.8-.07-.62-.13-1.23-.18-1.86-.13-1.77-.21-3.58-.29-5.4l-.06-1.13a13.87,13.87,0,0,0,4-1.52,4.43,4.43,0,0,0,1.94-3.19,2.13,2.13,0,0,0-2.3-2.18c-1.79.2-3.33,3.05-3.65,4.63,0,.05-.05.46-.09.91-.06-1-.14-2-.24-2.94a35.75,35.75,0,0,0-.83-5,14.62,14.62,0,0,0,4.16-1.55,4.45,4.45,0,0,0,1.94-3.2,2.13,2.13,0,0,0-2.3-2.17c-1.79.2-3.33,3.05-3.65,4.62,0,.12-.16,1.58-.18,2.11,0,0,0,0,0-.06a27.27,27.27,0,0,0-1.67-4.64,37,37,0,0,0-2.07-3.89c-.69-1.18-1.4-2.21-2-3.11-.35-.49-.67-.93-1-1.34h0s-.47-2.12-.51-2.25c-.55-1.51-2.49-4.1-4.29-4a2.13,2.13,0,0,0-2,2.48A4.41,4.41,0,0,0,394.05,431.37Z" style="fill:#263238"></path></g><g id="freepik--Lines--inject-554"><g style="opacity:0.30000000000000004"><path d="M320.66,286.58H196.88a.47.47,0,0,1-.43-.25l-61.9-107.19a.55.55,0,0,1,0-.5l61.9-107.2a.47.47,0,0,1,.43-.25H320.66a.48.48,0,0,1,.43.25L383,178.64a.5.5,0,0,1,0,.5L321.09,286.33A.48.48,0,0,1,320.66,286.58Zm-123.49-1h123.2L382,178.89l-61.6-106.7H197.17l-61.6,106.7Z"></path><path d="M36.43,109.19a.5.5,0,0,1-.49-.39.51.51,0,0,1,.38-.6L196.05,71.37,158,16.69a.5.5,0,0,1,.82-.58L197.29,71.4a.52.52,0,0,1,.05.47.5.5,0,0,1-.35.31l-160.45,37Z"></path><path d="M474.79,72.19H320.66a.5.5,0,0,1-.42-.23.48.48,0,0,1,0-.49l23.45-49.14a.5.5,0,1,1,.9.43L321.45,71.19H474.79a.5.5,0,0,1,.5.5A.5.5,0,0,1,474.79,72.19Z"></path><path d="M112,457.25a.59.59,0,0,1-.22-.05.5.5,0,0,1-.22-.67l84.89-170.67a.49.49,0,0,1,.67-.22.5.5,0,0,1,.23.67L112.43,457A.48.48,0,0,1,112,457.25Z"></path><path d="M405.55,417a.51.51,0,0,1-.42-.23L320.24,286.36a.49.49,0,0,1-.06-.41.47.47,0,0,1,.26-.31l157.43-78.39a.49.49,0,0,1,.67.22.5.5,0,0,1-.22.67L321.38,286.28,406,416.2a.5.5,0,0,1-.14.69A.57.57,0,0,1,405.55,417Z"></path><path d="M251.26,446.33a.48.48,0,0,1-.37-.17l-84.56-94.78L23.79,314.55a.5.5,0,1,1,.25-1l142.69,36.87a.47.47,0,0,1,.25.15l84.65,94.89a.5.5,0,0,1,0,.71A.46.46,0,0,1,251.26,446.33Z"></path><path d="M211.66,399.9a.5.5,0,0,1-.16-1l149.22-49.74,21.33-170.37a.51.51,0,0,1,.5-.43H480a.5.5,0,0,1,.5.5.51.51,0,0,1-.5.5H383L361.67,349.63a.48.48,0,0,1-.34.41L211.82,399.88Z"></path><path d="M361.18,350.06a.5.5,0,0,1-.48-.34.5.5,0,0,1,.32-.63l114.7-37.55a.5.5,0,1,1,.31.95L361.33,350A.39.39,0,0,1,361.18,350.06Z"></path><path d="M166.6,351.43a.51.51,0,0,1-.49-.41L134.58,179.44,16.46,193a.5.5,0,0,1-.11-1l118.58-13.65a.5.5,0,0,1,.55.41l31.61,172a.5.5,0,0,1-.4.58Z"></path><path d="M170.13,350.93a3.53,3.53,0,1,0-3.53,3.53A3.53,3.53,0,0,0,170.13,350.93Z"></path><path d="M214.08,399.65a3.53,3.53,0,1,0-3.53,3.53A3.53,3.53,0,0,0,214.08,399.65Z"></path><circle cx="361.18" cy="349.56" r="3.53"></circle><path d="M324.19,286.08a3.53,3.53,0,1,0-3.53,3.53A3.53,3.53,0,0,0,324.19,286.08Z"></path><path d="M374.92,261.05a3.53,3.53,0,1,0-3.53,3.53A3.53,3.53,0,0,0,374.92,261.05Z"></path><path d="M324.19,71.69a3.53,3.53,0,1,0-3.53,3.53A3.53,3.53,0,0,0,324.19,71.69Z"></path><path d="M200.41,71.69a3.53,3.53,0,1,0-3.53,3.53A3.53,3.53,0,0,0,200.41,71.69Z"></path><path d="M138.52,178.89a3.53,3.53,0,1,0-3.53,3.53A3.53,3.53,0,0,0,138.52,178.89Z"></path><circle cx="196.88" cy="286.08" r="3.53"></circle><path d="M382.71,179h-.12a.5.5,0,0,1-.37-.6l33.23-141.9a.5.5,0,1,1,1,.22L383.2,178.66A.5.5,0,0,1,382.71,179Z"></path><path d="M135,179.39a.51.51,0,0,1-.4-.2L44.28,58.94a.5.5,0,0,1,.1-.7.51.51,0,0,1,.7.1l90.31,120.25a.51.51,0,0,1-.1.7A.57.57,0,0,1,135,179.39Z"></path><path d="M386.24,178.54a3.53,3.53,0,1,0-3.53,3.53A3.53,3.53,0,0,0,386.24,178.54Z"></path><path d="M78.78,98.79a3.53,3.53,0,1,0-3.53,3.53A3.53,3.53,0,0,0,78.78,98.79Z"></path></g></g><g id="freepik--Videos--inject-554"><rect x="330.6" y="250.14" width="40.29" height="29.22" rx="4.12" style="fill:#263238"></rect><path d="M366.77,279.87h-32a4.64,4.64,0,0,1-4.63-4.63v-21a4.64,4.64,0,0,1,4.63-4.63h32a4.63,4.63,0,0,1,4.62,4.63v21A4.63,4.63,0,0,1,366.77,279.87Zm-32-29.23a3.64,3.64,0,0,0-3.63,3.63v21a3.64,3.64,0,0,0,3.63,3.63h32a3.63,3.63,0,0,0,3.62-3.63v-21a3.63,3.63,0,0,0-3.62-3.63Z" style="fill:#263238"></path><polygon points="357.86 264.16 345.11 256.8 345.11 271.51 357.86 264.16" style="fill:#fff"></polygon><path d="M345.11,272a.57.57,0,0,1-.25-.06.52.52,0,0,1-.25-.44V256.8a.5.5,0,0,1,.25-.43.5.5,0,0,1,.5,0l12.75,7.35a.5.5,0,0,1,0,.87L345.36,272A.51.51,0,0,1,345.11,272Zm.5-14.34v13l11.25-6.49Z" style="fill:#263238"></path><rect x="411.73" y="358.79" width="40.29" height="29.22" rx="4.12" style="fill:#263238"></rect><path d="M447.9,388.52h-32a4.63,4.63,0,0,1-4.62-4.63v-21a4.63,4.63,0,0,1,4.62-4.63h32a4.63,4.63,0,0,1,4.62,4.63v21A4.63,4.63,0,0,1,447.9,388.52Zm-32-29.23a3.63,3.63,0,0,0-3.62,3.63v21a3.63,3.63,0,0,0,3.62,3.63h32a3.63,3.63,0,0,0,3.62-3.63v-21a3.63,3.63,0,0,0-3.62-3.63Z" style="fill:#263238"></path><polygon points="438.98 372.81 426.24 365.45 426.24 380.16 438.98 372.81" style="fill:#fff"></polygon><path d="M426.24,380.66a.54.54,0,0,1-.25-.06.52.52,0,0,1-.25-.44V365.45A.5.5,0,0,1,426,365a.5.5,0,0,1,.5,0l12.74,7.35a.5.5,0,0,1,.25.44.48.48,0,0,1-.25.43l-12.74,7.36A.54.54,0,0,1,426.24,380.66Zm.5-14.34v13L438,372.81Z" style="fill:#263238"></path><rect x="248.26" y="54.14" width="41.49" height="30.09" rx="4.12" style="fill:#263238"></rect><path d="M285.62,84.73H252.38a4.62,4.62,0,0,1-4.62-4.62V58.27a4.63,4.63,0,0,1,4.62-4.63h33.24a4.64,4.64,0,0,1,4.63,4.63V80.11A4.63,4.63,0,0,1,285.62,84.73ZM252.38,54.64a3.63,3.63,0,0,0-3.62,3.63V80.11a3.62,3.62,0,0,0,3.62,3.62h33.24a3.63,3.63,0,0,0,3.63-3.62V58.27a3.64,3.64,0,0,0-3.63-3.63Z" style="fill:#263238"></path><polygon points="276.32 68.57 263.2 60.99 263.2 76.15 276.32 68.57" style="fill:#fff"></polygon><path d="M263.2,76.65a.55.55,0,0,1-.25-.07.48.48,0,0,1-.25-.43V61a.5.5,0,0,1,.75-.43l13.12,7.58a.49.49,0,0,1,0,.86l-13.12,7.58A.59.59,0,0,1,263.2,76.65Zm.5-14.79V75.28l11.62-6.71Z" style="fill:#263238"></path><rect x="133.18" y="283.86" width="40.29" height="29.22" rx="4.12" style="fill:#263238"></rect><path d="M169.35,313.58h-32a4.63,4.63,0,0,1-4.63-4.62V288a4.64,4.64,0,0,1,4.63-4.63h32A4.63,4.63,0,0,1,174,288v21A4.62,4.62,0,0,1,169.35,313.58Zm-32-29.22a3.64,3.64,0,0,0-3.63,3.63v21a3.63,3.63,0,0,0,3.63,3.62h32A3.62,3.62,0,0,0,173,309V288a3.63,3.63,0,0,0-3.62-3.63Z" style="fill:#263238"></path><polygon points="160.43 297.88 147.69 290.52 147.69 305.23 160.43 297.88" style="fill:#fff"></polygon><path d="M147.69,305.73a.57.57,0,0,1-.25-.06.52.52,0,0,1-.25-.44V290.52a.5.5,0,0,1,.75-.43l12.74,7.35a.5.5,0,0,1,0,.87l-12.74,7.36A.54.54,0,0,1,147.69,305.73Zm.5-14.35v13l11.24-6.49Z" style="fill:#263238"></path><rect x="74.29" y="124.07" width="41.49" height="30.09" rx="4.12" style="fill:#263238"></rect><path d="M111.65,154.66H78.41A4.62,4.62,0,0,1,73.79,150V128.2a4.63,4.63,0,0,1,4.62-4.63h33.24a4.64,4.64,0,0,1,4.63,4.63V150A4.63,4.63,0,0,1,111.65,154.66ZM78.41,124.57a3.63,3.63,0,0,0-3.62,3.63V150a3.62,3.62,0,0,0,3.62,3.62h33.24a3.63,3.63,0,0,0,3.63-3.62V128.2a3.64,3.64,0,0,0-3.63-3.63Z" style="fill:#263238"></path><polygon points="102.35 138.5 89.23 130.93 89.23 146.08 102.35 138.5" style="fill:#fff"></polygon><path d="M89.23,146.58a.45.45,0,0,1-.25-.07.5.5,0,0,1-.25-.43V130.93a.52.52,0,0,1,.25-.44.5.5,0,0,1,.5,0l13.12,7.58a.48.48,0,0,1,.25.43.5.5,0,0,1-.25.44l-13.12,7.57A.45.45,0,0,1,89.23,146.58Zm.5-14.79v13.42l11.62-6.71Z" style="fill:#263238"></path></g><g id="freepik--Documents--inject-554"><polygon points="450.21 349.74 415.6 349.74 415.6 305.55 444.66 305.55 450.21 312.11 450.21 349.74" style="fill:#fff"></polygon><path d="M450.21,350.24H415.6a.51.51,0,0,1-.5-.5V305.55a.51.51,0,0,1,.5-.5h29.06a.49.49,0,0,1,.38.18l5.55,6.56a.47.47,0,0,1,.12.32v37.63A.5.5,0,0,1,450.21,350.24Zm-34.11-1h33.61V312.29l-5.28-6.24H416.1Z" style="fill:#263238"></path><polygon points="444.66 305.55 444.66 312.41 450.21 312.41 444.66 305.55" style="fill:#fff"></polygon><path d="M450.21,312.91h-5.55a.5.5,0,0,1-.5-.5v-6.86a.51.51,0,0,1,.33-.47.5.5,0,0,1,.56.16l5.55,6.85a.49.49,0,0,1,.06.53A.48.48,0,0,1,450.21,312.91Zm-5-1h4l-4-5Z" style="fill:#263238"></path><path d="M441.37,319.19h-18a.5.5,0,0,1-.5-.5.51.51,0,0,1,.5-.5h18a.5.5,0,0,1,.5.5A.5.5,0,0,1,441.37,319.19Z" style="fill:#263238"></path><path d="M441.37,326.67h-18a.5.5,0,0,1-.5-.5.51.51,0,0,1,.5-.5h18a.5.5,0,0,1,.5.5A.5.5,0,0,1,441.37,326.67Z" style="fill:#263238"></path><path d="M441.37,334.16h-18a.51.51,0,0,1-.5-.5.5.5,0,0,1,.5-.5h18a.5.5,0,0,1,.5.5A.5.5,0,0,1,441.37,334.16Z" style="fill:#263238"></path><polygon points="309 428.39 274.39 428.39 274.39 384.2 303.45 384.2 309 390.76 309 428.39" style="fill:#fff"></polygon><path d="M309,428.89H274.39a.5.5,0,0,1-.5-.5V384.2a.5.5,0,0,1,.5-.5h29.06a.53.53,0,0,1,.38.18l5.55,6.56a.47.47,0,0,1,.12.32v37.63A.51.51,0,0,1,309,428.89Zm-34.11-1H308.5V390.94l-5.29-6.24H274.89Z" style="fill:#263238"></path><polygon points="303.45 384.2 303.45 391.06 309 391.06 303.45 384.2" style="fill:#fff"></polygon><path d="M309,391.56h-5.55a.5.5,0,0,1-.5-.5V384.2a.5.5,0,0,1,.33-.47.5.5,0,0,1,.56.16l5.55,6.85a.51.51,0,0,1,.06.53A.49.49,0,0,1,309,391.56Zm-5.05-1h4l-4-4.94Z" style="fill:#263238"></path><path d="M300.15,397.84H282.2a.5.5,0,0,1-.5-.5.5.5,0,0,1,.5-.5h17.95a.5.5,0,0,1,.5.5A.5.5,0,0,1,300.15,397.84Z" style="fill:#263238"></path><path d="M300.15,405.33H282.2a.5.5,0,0,1-.5-.5.5.5,0,0,1,.5-.5h17.95a.5.5,0,0,1,.5.5A.5.5,0,0,1,300.15,405.33Z" style="fill:#263238"></path><path d="M300.15,412.81H282.2a.5.5,0,0,1-.5-.5.5.5,0,0,1,.5-.5h17.95a.5.5,0,0,1,.5.5A.5.5,0,0,1,300.15,412.81Z" style="fill:#263238"></path><polygon points="325.09 442.69 290.48 442.69 290.48 398.5 319.53 398.5 325.09 405.06 325.09 442.69" style="fill:#fff"></polygon><path d="M325.09,443.19H290.48a.5.5,0,0,1-.5-.5V398.5a.5.5,0,0,1,.5-.5h29a.53.53,0,0,1,.39.18l5.55,6.56a.53.53,0,0,1,.12.32v37.63A.51.51,0,0,1,325.09,443.19Zm-34.11-1h33.61V405.24L319.3,399H291Z" style="fill:#263238"></path><polygon points="319.53 398.5 319.53 405.36 325.09 405.36 319.53 398.5" style="fill:#fff"></polygon><path d="M325.09,405.86h-5.56a.5.5,0,0,1-.5-.5V398.5a.51.51,0,0,1,.34-.47.48.48,0,0,1,.55.16l5.55,6.85a.49.49,0,0,1,.07.53A.5.5,0,0,1,325.09,405.86Zm-5.06-1h4l-4-4.94Z" style="fill:#263238"></path><path d="M316.24,412.14H298.29a.5.5,0,0,1-.5-.5.5.5,0,0,1,.5-.5h17.95a.5.5,0,0,1,.5.5A.5.5,0,0,1,316.24,412.14Z" style="fill:#263238"></path><path d="M316.24,419.63H298.29a.5.5,0,0,1-.5-.5.5.5,0,0,1,.5-.5h17.95a.5.5,0,0,1,.5.5A.5.5,0,0,1,316.24,419.63Z" style="fill:#263238"></path><path d="M316.24,427.11H298.29a.5.5,0,0,1-.5-.5.5.5,0,0,1,.5-.5h17.95a.5.5,0,0,1,.5.5A.5.5,0,0,1,316.24,427.11Z" style="fill:#263238"></path><polygon points="396.85 88.16 362.24 88.16 362.24 43.98 391.3 43.98 396.85 50.53 396.85 88.16" style="fill:#fff"></polygon><path d="M396.85,88.66H362.24a.5.5,0,0,1-.5-.5V44a.5.5,0,0,1,.5-.5H391.3a.5.5,0,0,1,.38.17l5.55,6.56a.49.49,0,0,1,.12.32V88.16A.5.5,0,0,1,396.85,88.66Zm-34.11-1h33.61V50.72l-5.28-6.24H362.74Z" style="fill:#263238"></path><polygon points="391.3 43.98 391.3 50.83 396.85 50.83 391.3 43.98" style="fill:#fff"></polygon><path d="M396.85,51.33H391.3a.5.5,0,0,1-.5-.5V44a.51.51,0,0,1,.33-.48.52.52,0,0,1,.56.16l5.55,6.86a.51.51,0,0,1,.06.53A.5.5,0,0,1,396.85,51.33Zm-5.05-1h4l-4-4.94Z" style="fill:#263238"></path><path d="M388,57.62h-18a.5.5,0,0,1-.5-.5.5.5,0,0,1,.5-.5h18a.5.5,0,0,1,.5.5A.51.51,0,0,1,388,57.62Z" style="fill:#263238"></path><path d="M388,65.1h-18a.5.5,0,0,1,0-1h18a.5.5,0,0,1,0,1Z" style="fill:#263238"></path><path d="M388,72.58h-18a.5.5,0,0,1,0-1h18a.5.5,0,0,1,0,1Z" style="fill:#263238"></path><polygon points="64.11 170.39 29.5 170.39 29.5 126.2 58.55 126.2 64.11 132.76 64.11 170.39" style="fill:#fff"></polygon><path d="M64.11,170.89H29.5a.5.5,0,0,1-.5-.5V126.2a.5.5,0,0,1,.5-.5H58.55a.53.53,0,0,1,.39.18l5.55,6.56a.53.53,0,0,1,.12.32v37.63A.51.51,0,0,1,64.11,170.89Zm-34.11-1H63.61V132.94l-5.29-6.24H30Z" style="fill:#263238"></path><polygon points="58.55 126.2 58.55 133.06 64.11 133.06 58.55 126.2" style="fill:#fff"></polygon><path d="M64.11,133.56H58.55a.51.51,0,0,1-.5-.5V126.2a.51.51,0,0,1,.34-.47.48.48,0,0,1,.55.16l5.56,6.85a.51.51,0,0,1,.06.53A.5.5,0,0,1,64.11,133.56Zm-5.06-1h4l-4-5Z" style="fill:#263238"></path><path d="M55.26,139.84H37.31a.5.5,0,0,1-.5-.5.5.5,0,0,1,.5-.5H55.26a.5.5,0,0,1,.5.5A.5.5,0,0,1,55.26,139.84Z" style="fill:#263238"></path><path d="M55.26,147.33H37.31a.5.5,0,0,1-.5-.5.5.5,0,0,1,.5-.5H55.26a.5.5,0,0,1,.5.5A.5.5,0,0,1,55.26,147.33Z" style="fill:#263238"></path><path d="M55.26,154.81H37.31a.5.5,0,0,1-.5-.5.5.5,0,0,1,.5-.5H55.26a.5.5,0,0,1,.5.5A.5.5,0,0,1,55.26,154.81Z" style="fill:#263238"></path></g><g id="freepik--Pictures--inject-554"><rect x="224.95" y="247.77" width="38.6" height="45.44" style="fill:#263238"></rect><path d="M264.05,293.7h-39.6V247.27h39.6Zm-38.6-1h37.6V248.27h-37.6Z" style="fill:#263238"></path><path d="M261.87,291.72H226.64a.5.5,0,0,1-.5-.5V249.75a.5.5,0,0,1,.5-.5h35.23a.5.5,0,0,1,.5.5v41.47A.5.5,0,0,1,261.87,291.72Zm-34.73-1h34.23V250.25H227.14Z" style="fill:#263238"></path><polygon points="261.87 262.55 257.73 259.92 247.34 272.01 238.97 267.36 227.03 278.37 226.64 278.4 226.64 291.22 261.87 291.22 261.87 262.55" style="fill:#fff"></polygon><path d="M261.87,291.72H226.64a.5.5,0,0,1-.5-.5V278.4a.5.5,0,0,1,.46-.5l.22,0L238.63,267a.5.5,0,0,1,.58-.07l8,4.46,10.12-11.79a.49.49,0,0,1,.65-.09l4.14,2.63a.5.5,0,0,1,.23.42v28.67A.5.5,0,0,1,261.87,291.72Zm-34.73-1h34.23V262.83l-3.54-2.26-10.11,11.77a.5.5,0,0,1-.62.11l-8-4.48-11.68,10.76a.45.45,0,0,1-.23.13Z" style="fill:#263238"></path><circle cx="234.32" cy="258.37" r="4.03" style="fill:#fff"></circle><path d="M234.32,262.9a4.53,4.53,0,1,1,4.53-4.53A4.53,4.53,0,0,1,234.32,262.9Zm0-8.06a3.53,3.53,0,1,0,3.53,3.53A3.53,3.53,0,0,0,234.32,254.84Z" style="fill:#263238"></path><path d="M158.69,154.47H119a.5.5,0,0,1-.5-.5V107.18a.5.5,0,0,1,.5-.5h39.74a.5.5,0,0,1,.5.5V154A.5.5,0,0,1,158.69,154.47Zm-39.24-1h38.74V107.68H119.45Z" style="fill:#263238"></path><rect x="120.68" y="109.22" width="36.28" height="42.71" style="fill:#638BDF"></rect><path d="M157.46,152.43H120.18V108.72h37.28Zm-36.28-1h35.28V109.72H121.18Z" style="fill:#263238"></path><polygon points="156.96 122.41 152.7 119.7 142 132.15 133.38 127.36 121.09 138.69 120.68 138.73 120.68 151.93 156.96 151.93 156.96 122.41" style="fill:#fff"></polygon><path d="M157,152.43H120.68a.5.5,0,0,1-.5-.5v-13.2a.5.5,0,0,1,.46-.5l.24,0L133.05,127a.51.51,0,0,1,.58-.07l8.26,4.59,10.43-12.14a.49.49,0,0,1,.65-.09l4.26,2.71a.5.5,0,0,1,.23.42v29.52A.5.5,0,0,1,157,152.43Zm-35.78-1h35.28V122.69l-3.66-2.34-10.42,12.13a.5.5,0,0,1-.62.11l-8.3-4.62-12,11.09a.47.47,0,0,1-.25.13Z" style="fill:#263238"></path><circle cx="128.6" cy="118.1" r="4.15" style="fill:#fff"></circle><path d="M128.59,122.75a4.65,4.65,0,1,1,4.66-4.65A4.65,4.65,0,0,1,128.59,122.75Zm0-8.3a3.65,3.65,0,1,0,3.66,3.65A3.66,3.66,0,0,0,128.59,114.45Z" style="fill:#263238"></path><rect x="269.88" y="247.77" width="55.67" height="32.46" style="fill:#fff"></rect><path d="M325.56,280.73H269.88a.51.51,0,0,1-.5-.5V247.77a.5.5,0,0,1,.5-.5h55.68a.5.5,0,0,1,.5.5v32.46A.51.51,0,0,1,325.56,280.73Zm-55.18-1h54.68V248.27H270.38Z" style="fill:#263238"></path><path d="M323.87,278.75h-52.3a.5.5,0,0,1-.5-.5v-28.5a.5.5,0,0,1,.5-.5h52.3a.5.5,0,0,1,.5.5v28.5A.5.5,0,0,1,323.87,278.75Zm-51.8-1h51.3v-27.5h-51.3Z" style="fill:#263238"></path><polygon points="323.87 261.32 317.19 257.44 303.54 268.29 293.46 262.86 271.57 278.25 323.87 278.25 323.87 261.32" style="fill:#638BDF"></polygon><path d="M324.37,278.75H270l23.44-16.47,10.06,5.41,13.65-10.86,7.23,4.2Zm-51.22-1h50.22V261.61L317.23,258,303.6,268.89l-10.1-5.44Z" style="fill:#263238"></path><path d="M282.61,256.66a4,4,0,1,1-4-4A4,4,0,0,1,282.61,256.66Z" style="fill:#638BDF"></path><path d="M278.58,261.19a4.53,4.53,0,1,1,4.53-4.53A4.53,4.53,0,0,1,278.58,261.19Zm0-8.06a3.53,3.53,0,1,0,3.53,3.53A3.54,3.54,0,0,0,278.58,253.13Z" style="fill:#263238"></path><rect x="372.63" y="170.61" width="83.48" height="48.68" style="fill:#fff"></rect><path d="M456.11,219.79H372.63a.5.5,0,0,1-.5-.5V170.61a.5.5,0,0,1,.5-.5h83.48a.5.5,0,0,1,.5.5v48.68A.5.5,0,0,1,456.11,219.79Zm-83-1h82.48V171.11H373.13Z" style="fill:#263238"></path><rect x="375.15" y="173.58" width="78.44" height="42.74" style="fill:#263238"></rect><path d="M454.09,216.82H374.65V173.08h79.44Zm-78.44-1h77.44V174.08H375.65Z" style="fill:#263238"></path><polygon points="453.59 190.94 443.56 185.12 423.1 201.39 407.99 193.25 375.15 216.32 453.59 216.32 453.59 190.94" style="fill:#638BDF"></polygon><path d="M454.09,216.82H373.57L408,192.67l15.1,8.12,20.46-16.28,10.58,6.14Zm-77.36-1h76.36V191.23l-9.49-5.51L423.15,202,408,193.84Z" style="fill:#263238"></path><path d="M391.71,184a6,6,0,1,1-6-6A6,6,0,0,1,391.71,184Z" style="fill:#638BDF"></path><path d="M385.67,190.5a6.55,6.55,0,1,1,6.54-6.55A6.55,6.55,0,0,1,385.67,190.5Zm0-12.09a5.55,5.55,0,1,0,5.54,5.54A5.55,5.55,0,0,0,385.67,178.41Z" style="fill:#263238"></path><rect x="316.79" y="286.02" width="55.67" height="32.46" style="fill:#fff"></rect><path d="M372.47,319H316.8a.5.5,0,0,1-.5-.5V286a.5.5,0,0,1,.5-.5h55.67a.5.5,0,0,1,.5.5v32.46A.51.51,0,0,1,372.47,319Zm-55.17-1H372V286.52H317.3Z" style="fill:#263238"></path><rect x="318.48" y="288" width="52.31" height="28.5" style="fill:#fff"></rect><path d="M370.78,317h-52.3a.5.5,0,0,1-.5-.5V288a.5.5,0,0,1,.5-.5h52.3a.5.5,0,0,1,.5.5v28.5A.5.5,0,0,1,370.78,317ZM319,316h51.3V288.5H319Z" style="fill:#263238"></path><polygon points="370.78 299.57 364.1 295.69 350.45 306.54 340.38 301.11 318.48 316.5 370.78 316.5 370.78 299.57" style="fill:#263238"></polygon><path d="M371.28,317H316.9l23.44-16.47,10.06,5.41,13.65-10.86,7.23,4.2Zm-51.22-1h50.22V299.86l-6.14-3.57-13.63,10.85-10.1-5.44Z" style="fill:#263238"></path><path d="M329.52,294.91a4,4,0,1,1-4-4A4,4,0,0,1,329.52,294.91Z" style="fill:#263238"></path><path d="M325.49,299.44a4.53,4.53,0,1,1,4.53-4.53A4.53,4.53,0,0,1,325.49,299.44Zm0-8.06a3.53,3.53,0,1,0,3.53,3.53A3.54,3.54,0,0,0,325.49,291.38Z" style="fill:#263238"></path><rect x="100.61" y="159.16" width="57.33" height="33.43" style="fill:#fff"></rect><path d="M157.94,193.09H100.61a.5.5,0,0,1-.5-.5V159.16a.5.5,0,0,1,.5-.5h57.33a.5.5,0,0,1,.5.5v33.43A.51.51,0,0,1,157.94,193.09Zm-56.83-1h56.33V159.66H101.11Z" style="fill:#263238"></path><rect x="102.34" y="161.2" width="53.86" height="29.35" style="fill:#fff"></rect><path d="M156.2,191.05H102.34a.5.5,0,0,1-.5-.5V161.2a.5.5,0,0,1,.5-.5H156.2a.5.5,0,0,1,.5.5v29.35A.5.5,0,0,1,156.2,191.05Zm-53.36-1H155.7V161.7H102.84Z" style="fill:#263238"></path><polygon points="156.2 173.12 149.31 169.12 135.27 180.29 124.89 174.71 102.34 190.55 156.2 190.55 156.2 173.12" style="fill:#fff"></polygon><path d="M156.2,191.05H102.34a.5.5,0,0,1-.29-.91L124.6,174.3a.51.51,0,0,1,.53,0l10.08,5.43,13.79-11a.5.5,0,0,1,.57,0l6.88,4a.48.48,0,0,1,.25.43v17.43A.5.5,0,0,1,156.2,191.05Zm-52.28-1H155.7V173.41l-6.34-3.69-13.78,11a.52.52,0,0,1-.55.05l-10.11-5.45Z" style="fill:#263238"></path><circle cx="109.56" cy="168.32" r="4.15" style="fill:#fff"></circle><path d="M109.56,173a4.65,4.65,0,1,1,4.65-4.65A4.65,4.65,0,0,1,109.56,173Zm0-8.3a3.65,3.65,0,1,0,3.65,3.65A3.66,3.66,0,0,0,109.56,164.67Z" style="fill:#263238"></path><rect x="358.31" y="99.95" width="48.25" height="64.95" style="fill:#fff"></rect><path d="M406.56,165.41H358.31a.5.5,0,0,1-.5-.5V100a.5.5,0,0,1,.5-.5h48.25a.5.5,0,0,1,.5.5v65A.5.5,0,0,1,406.56,165.41Zm-47.75-1h47.25v-64H358.81Z" style="fill:#263238"></path><path d="M402.62,160.92H362.26a.5.5,0,0,1-.5-.5v-56a.5.5,0,0,1,.5-.5h40.36a.51.51,0,0,1,.5.5v56A.5.5,0,0,1,402.62,160.92Zm-39.86-1h39.36v-55H362.76Z" style="fill:#263238"></path><polygon points="402.62 119.46 397.85 115.75 385.73 137.45 376.72 130.12 362.35 151.82 362.25 152.01 362.25 160.42 402.62 160.42 402.62 119.46" style="fill:#fff"></polygon><path d="M402.62,160.92H362.26a.5.5,0,0,1-.5-.5V152a.54.54,0,0,1,0-.22l.1-.2,14.4-21.75a.49.49,0,0,1,.34-.22.54.54,0,0,1,.39.1l8.56,7,11.82-21.18a.5.5,0,0,1,.75-.15l4.76,3.71a.47.47,0,0,1,.2.39v41A.5.5,0,0,1,402.62,160.92Zm-39.86-1h39.36V119.71L398,116.5l-11.83,21.19a.51.51,0,0,1-.34.25.49.49,0,0,1-.41-.1l-8.59-7-14.07,21.26Z" style="fill:#263238"></path><path d="M362.26,104.94a.52.52,0,0,1-.38-.17l-3.95-4.49a.49.49,0,0,1,.05-.7.51.51,0,0,1,.71,0l3.94,4.49a.51.51,0,0,1,0,.71A.54.54,0,0,1,362.26,104.94Z" style="fill:#263238"></path><path d="M402.62,104.94a.5.5,0,0,1-.33-.12.51.51,0,0,1-.05-.71l3.95-4.49a.5.5,0,0,1,.7,0,.49.49,0,0,1,.05.7L403,104.77A.5.5,0,0,1,402.62,104.94Z" style="fill:#263238"></path><path d="M406.56,165.41a.5.5,0,0,1-.37-.17l-3.95-4.49a.51.51,0,0,1,.05-.71.49.49,0,0,1,.7.05l3.95,4.49a.49.49,0,0,1-.05.7A.46.46,0,0,1,406.56,165.41Z" style="fill:#263238"></path><path d="M358.31,165.41a.48.48,0,0,1-.33-.13.49.49,0,0,1-.05-.7l3.95-4.49a.51.51,0,0,1,.71-.05.51.51,0,0,1,0,.71l-3.94,4.49A.52.52,0,0,1,358.31,165.41Z" style="fill:#263238"></path><path d="M377,116a5.92,5.92,0,1,1-5.92-5.91A5.92,5.92,0,0,1,377,116Z" style="fill:#fff"></path><path d="M371.08,122.45A6.42,6.42,0,1,1,377.5,116,6.42,6.42,0,0,1,371.08,122.45Zm0-11.83A5.42,5.42,0,1,0,376.5,116,5.41,5.41,0,0,0,371.08,110.62Z" style="fill:#263238"></path><rect x="63.18" y="55.23" width="47.68" height="64.18" style="fill:#fff"></rect><path d="M110.85,119.91H63.18a.5.5,0,0,1-.5-.5V55.23a.5.5,0,0,1,.5-.5h47.67a.5.5,0,0,1,.5.5v64.18A.5.5,0,0,1,110.85,119.91Zm-47.17-1h46.67V55.73H63.68Z" style="fill:#263238"></path><rect x="67.08" y="59.67" width="39.88" height="55.31" style="fill:#fff"></rect><path d="M107,115.48H67.08a.5.5,0,0,1-.5-.5V59.67a.5.5,0,0,1,.5-.5H107a.5.5,0,0,1,.5.5V115A.51.51,0,0,1,107,115.48Zm-39.38-1h38.88V60.17H67.58Z" style="fill:#263238"></path><polygon points="106.96 74.51 102.25 70.84 90.27 92.28 81.36 85.04 67.17 106.48 67.08 106.67 67.08 114.98 106.96 114.98 106.96 74.51" style="fill:#263238"></polygon><path d="M67.08,60.17A.52.52,0,0,1,66.7,60l-3.9-4.44a.5.5,0,0,1,.75-.66l3.9,4.44a.5.5,0,0,1,0,.7A.5.5,0,0,1,67.08,60.17Z" style="fill:#263238"></path><path d="M107,60.17a.46.46,0,0,1-.33-.13.49.49,0,0,1,0-.7l3.9-4.44a.5.5,0,0,1,.75.66L107.33,60A.51.51,0,0,1,107,60.17Z" style="fill:#263238"></path><path d="M110.85,119.91a.5.5,0,0,1-.37-.17l-3.9-4.43a.51.51,0,0,1,0-.71.49.49,0,0,1,.7.05l3.9,4.43a.51.51,0,0,1,0,.71A.5.5,0,0,1,110.85,119.91Z" style="fill:#263238"></path><path d="M63.18,119.91a.5.5,0,0,1-.33-.12.51.51,0,0,1-.05-.71l3.9-4.43a.51.51,0,0,1,.71-.05.51.51,0,0,1,0,.71l-3.9,4.43A.5.5,0,0,1,63.18,119.91Z" style="fill:#263238"></path><path d="M81.64,71.12a5.85,5.85,0,1,1-5.84-5.84A5.84,5.84,0,0,1,81.64,71.12Z" style="fill:#263238"></path><rect x="215.16" y="306.31" width="48.9" height="65.82" style="fill:#fff"></rect><path d="M264.05,372.63H215.16a.5.5,0,0,1-.5-.5V306.31a.5.5,0,0,1,.5-.5h48.89a.5.5,0,0,1,.5.5v65.82A.5.5,0,0,1,264.05,372.63Zm-48.39-1h47.89V306.81H215.66Z" style="fill:#263238"></path><rect x="219.15" y="310.86" width="40.9" height="56.72" style="fill:#fff"></rect><path d="M260.05,368.08h-40.9a.5.5,0,0,1-.5-.5V310.86a.5.5,0,0,1,.5-.5h40.9a.5.5,0,0,1,.5.5v56.72A.5.5,0,0,1,260.05,368.08Zm-40.4-1h39.9V311.36h-39.9Z" style="fill:#263238"></path><polygon points="260.05 326.08 255.22 322.32 242.94 344.31 233.81 336.88 219.25 358.87 219.15 359.07 219.15 367.58 260.05 367.58 260.05 326.08" style="fill:#638BDF"></polygon><path d="M260.55,368.08h-41.9l0-9.22.09-.2,14.91-22.51,9.1,7.39,12.27-22,5.48,4.27Zm-40.9-1h39.9V326.32l-4.17-3.25-12.29,22-9.17-7.45-14.27,21.55Z" style="fill:#263238"></path><path d="M219.15,311.36a.5.5,0,0,1-.37-.17l-4-4.55a.49.49,0,0,1,.05-.7.48.48,0,0,1,.7,0l4,4.55a.51.51,0,0,1-.05.71A.5.5,0,0,1,219.15,311.36Z" style="fill:#263238"></path><path d="M260.05,311.36a.54.54,0,0,1-.33-.12.51.51,0,0,1,0-.71l4-4.55a.48.48,0,0,1,.7,0,.49.49,0,0,1,.05.7l-4,4.55A.52.52,0,0,1,260.05,311.36Z" style="fill:#263238"></path><path d="M264.05,372.63a.45.45,0,0,1-.37-.17l-4-4.54a.5.5,0,0,1,.75-.67l4,4.55a.51.51,0,0,1-.05.71A.5.5,0,0,1,264.05,372.63Z" style="fill:#263238"></path><path d="M215.16,372.63a.5.5,0,0,1-.33-.12.51.51,0,0,1-.05-.71l4-4.55a.5.5,0,0,1,.75.67l-4,4.54A.48.48,0,0,1,215.16,372.63Z" style="fill:#263238"></path><path d="M234.09,322.61a6,6,0,1,1-6-6A6,6,0,0,1,234.09,322.61Z" style="fill:#638BDF"></path><path d="M228.1,329.1a6.5,6.5,0,1,1,6.49-6.49A6.5,6.5,0,0,1,228.1,329.1Zm0-12a5.5,5.5,0,1,0,5.49,5.5A5.51,5.51,0,0,0,228.1,317.11Z" style="fill:#263238"></path><rect x="410.37" y="46.26" width="44.65" height="60.1" style="fill:#fff"></rect><path d="M455,106.86H410.37a.5.5,0,0,1-.5-.5V46.26a.5.5,0,0,1,.5-.5H455a.5.5,0,0,1,.5.5v60.1A.5.5,0,0,1,455,106.86Zm-44.14-1h43.64V46.76H410.87Z" style="fill:#263238"></path><rect x="414.02" y="50.41" width="37.35" height="51.8" style="fill:#fff"></rect><path d="M451.36,102.71H414a.5.5,0,0,1-.5-.5V50.41a.5.5,0,0,1,.5-.5h37.34a.5.5,0,0,1,.5.5v51.8A.5.5,0,0,1,451.36,102.71Zm-36.84-1h36.34V50.91H414.52Z" style="fill:#263238"></path><polygon points="451.37 64.31 446.95 60.88 435.74 80.95 427.4 74.17 414.1 94.25 414.02 94.43 414.02 102.21 451.37 102.21 451.37 64.31" style="fill:#638BDF"></polygon><path d="M451.86,102.71H413.52l0-8.49.09-.18,13.64-20.6,8.31,6.75,11.2-20.07,5.06,3.94Zm-37.34-1h36.34V64.55l-3.75-2.92L435.89,81.71l-8.38-6.8-13,19.62Z" style="fill:#263238"></path><path d="M414,50.91a.52.52,0,0,1-.38-.17L410,46.59a.51.51,0,0,1,.05-.71.49.49,0,0,1,.7,0l3.65,4.15a.51.51,0,0,1,0,.71A.54.54,0,0,1,414,50.91Z" style="fill:#263238"></path><path d="M451.36,50.91a.54.54,0,0,1-.33-.12.51.51,0,0,1,0-.71l3.65-4.15a.49.49,0,0,1,.7,0,.51.51,0,0,1,.05.71l-3.65,4.15A.52.52,0,0,1,451.36,50.91Z" style="fill:#263238"></path><path d="M455,106.86a.51.51,0,0,1-.37-.17L451,102.54a.51.51,0,0,1,0-.71.51.51,0,0,1,.71,0l3.65,4.15a.51.51,0,0,1-.05.71A.5.5,0,0,1,455,106.86Z" style="fill:#263238"></path><path d="M410.37,106.86a.5.5,0,0,1-.33-.12A.51.51,0,0,1,410,106l3.65-4.15a.51.51,0,0,1,.71,0,.51.51,0,0,1,0,.71l-3.65,4.15A.5.5,0,0,1,410.37,106.86Z" style="fill:#263238"></path><path d="M427.66,61.14a5.48,5.48,0,1,1-5.48-5.48A5.47,5.47,0,0,1,427.66,61.14Z" style="fill:#638BDF"></path><path d="M422.18,67.11a6,6,0,1,1,6-6A6,6,0,0,1,422.18,67.11Zm0-11a5,5,0,1,0,5,5A5,5,0,0,0,422.18,56.16Z" style="fill:#263238"></path><path d="M217.67,293.7H179.08a.5.5,0,0,1-.5-.5V247.77a.5.5,0,0,1,.5-.5h38.59a.5.5,0,0,1,.5.5V293.2A.5.5,0,0,1,217.67,293.7Zm-38.09-1h37.59V248.27H179.58Z" style="fill:#263238"></path><rect x="180.76" y="249.75" width="35.23" height="41.47" style="fill:#638BDF"></rect><path d="M216.49,291.72H180.26V249.25h36.23Zm-35.23-1h34.23V250.25H181.26Z" style="fill:#263238"></path><path d="M187.37,275.65V273.9a3.88,3.88,0,0,0,.74-.06,1,1,0,0,0,.47-.19.86.86,0,0,0,.24-.42,2.72,2.72,0,0,0,.08-.71v-9.45h2.49v9.56a5.06,5.06,0,0,1-.24,1.68,1.78,1.78,0,0,1-.85,1,3.7,3.7,0,0,1-1.72.33Z" style="fill:#263238"></path><path d="M193.24,275.33V263.07h3.89a3.43,3.43,0,0,1,1.8.42,2.55,2.55,0,0,1,1,1.2,4.76,4.76,0,0,1,.34,1.91,4,4,0,0,1-.45,2.06,2.44,2.44,0,0,1-1.22,1,4.62,4.62,0,0,1-1.77.31h-1.13v5.31Zm2.5-7.06h.88a1.64,1.64,0,0,0,.84-.18.89.89,0,0,0,.4-.55,3.75,3.75,0,0,0,.1-1,4.22,4.22,0,0,0-.08-.94,1,1,0,0,0-.37-.59,1.57,1.57,0,0,0-.91-.21h-.86Z" style="fill:#263238"></path><path d="M204.73,275.52a3.31,3.31,0,0,1-2-.53,2.84,2.84,0,0,1-1-1.48,7.46,7.46,0,0,1-.31-2.23v-4.1a7.22,7.22,0,0,1,.32-2.27,2.67,2.67,0,0,1,1.11-1.47,3.88,3.88,0,0,1,2.16-.52,4.2,4.2,0,0,1,2.08.44,2.5,2.5,0,0,1,1.1,1.24,5,5,0,0,1,.33,1.91v.71h-2.43v-.86a5.52,5.52,0,0,0-.06-.86,1.06,1.06,0,0,0-.28-.58,1,1,0,0,0-.71-.21.88.88,0,0,0-.72.26,1.18,1.18,0,0,0-.29.65,5.9,5.9,0,0,0-.06.86v5.43a4.31,4.31,0,0,0,.09.93,1.14,1.14,0,0,0,.34.63,1.22,1.22,0,0,0,1.44,0,1.25,1.25,0,0,0,.36-.66,3.9,3.9,0,0,0,.1-.95v-1.3h-1.2V269h3.45v6.29h-1.63l-.15-1.1a2.27,2.27,0,0,1-.73.92A2.07,2.07,0,0,1,204.73,275.52Z" style="fill:#263238"></path><rect x="119.32" y="55.23" width="39.74" height="46.79" style="fill:#fff"></rect><path d="M159.06,102.52H119.32a.5.5,0,0,1-.5-.5V55.23a.5.5,0,0,1,.5-.5h39.74a.5.5,0,0,1,.5.5V102A.5.5,0,0,1,159.06,102.52Zm-39.24-1h38.74V55.73H119.82Z" style="fill:#263238"></path><rect x="121.05" y="57.27" width="36.28" height="42.71" style="fill:#fff"></rect><path d="M157.33,100.48H121.05a.5.5,0,0,1-.5-.5V57.27a.5.5,0,0,1,.5-.5h36.28a.51.51,0,0,1,.5.5V100A.5.5,0,0,1,157.33,100.48Zm-35.78-1h35.28V57.77H121.55Z" style="fill:#263238"></path><path d="M127.85,84V82.14a5.51,5.51,0,0,0,.77,0,1.18,1.18,0,0,0,.48-.2.91.91,0,0,0,.25-.43,2.92,2.92,0,0,0,.08-.74V71H132v9.83a5.34,5.34,0,0,1-.25,1.74,1.89,1.89,0,0,1-.88,1,3.74,3.74,0,0,1-1.77.34Z" style="fill:#263238"></path><path d="M133.9,83.62V71h4a3.54,3.54,0,0,1,1.85.43,2.61,2.61,0,0,1,1.07,1.24,5,5,0,0,1,.35,2,4.09,4.09,0,0,1-.46,2.12,2.54,2.54,0,0,1-1.26,1.08,4.69,4.69,0,0,1-1.82.32h-1.17v5.47Zm2.57-7.28h.91a1.69,1.69,0,0,0,.86-.18.86.86,0,0,0,.41-.56,3.54,3.54,0,0,0,.11-1,5.18,5.18,0,0,0-.08-1,1.05,1.05,0,0,0-.38-.61,1.65,1.65,0,0,0-.94-.21h-.89Z" style="fill:#263238"></path><path d="M145.73,83.81a3.42,3.42,0,0,1-2-.54,3,3,0,0,1-1.06-1.52,7.3,7.3,0,0,1-.32-2.3V75.22a7.74,7.74,0,0,1,.32-2.34,2.82,2.82,0,0,1,1.15-1.51,4.1,4.1,0,0,1,2.22-.53,4.31,4.31,0,0,1,2.14.45,2.56,2.56,0,0,1,1.13,1.28,5.1,5.1,0,0,1,.35,2v.73h-2.51v-.89a5.7,5.7,0,0,0-.06-.88,1.1,1.1,0,0,0-.29-.6,1,1,0,0,0-.73-.22,1,1,0,0,0-.75.27,1.29,1.29,0,0,0-.29.67,6.19,6.19,0,0,0-.06.88v5.6a4.58,4.58,0,0,0,.09,1,1.24,1.24,0,0,0,.35.66,1.09,1.09,0,0,0,.74.23,1,1,0,0,0,.75-.25,1.31,1.31,0,0,0,.36-.68,4,4,0,0,0,.11-1V78.7H146.1V77.14h3.56v6.48H148l-.15-1.13a2.41,2.41,0,0,1-.75,1A2.17,2.17,0,0,1,145.73,83.81Z" style="fill:#263238"></path><rect x="270.9" y="285.54" width="38.6" height="45.44" style="fill:#fff"></rect><path d="M309.49,331.48H270.9a.5.5,0,0,1-.5-.5V285.54a.5.5,0,0,1,.5-.5h38.59a.5.5,0,0,1,.5.5V331A.5.5,0,0,1,309.49,331.48Zm-38.09-1H309V286H271.4Z" style="fill:#263238"></path><path d="M307.81,329.5H272.58a.5.5,0,0,1-.5-.5V287.52a.5.5,0,0,1,.5-.5h35.23a.5.5,0,0,1,.5.5V329A.5.5,0,0,1,307.81,329.5Zm-34.73-1h34.23V288H273.08Z" style="fill:#263238"></path><path d="M281.2,313.3a3.29,3.29,0,0,1-2-.53,2.83,2.83,0,0,1-1-1.48,7.51,7.51,0,0,1-.31-2.23V305a7.31,7.31,0,0,1,.32-2.27,2.69,2.69,0,0,1,1.11-1.46,3.88,3.88,0,0,1,2.16-.52,4.2,4.2,0,0,1,2.08.44,2.5,2.5,0,0,1,1.1,1.24,5,5,0,0,1,.33,1.91V305h-2.44v-.86a5.43,5.43,0,0,0-.06-.86,1,1,0,0,0-.28-.58,1,1,0,0,0-.7-.21.94.94,0,0,0-.73.25,1.32,1.32,0,0,0-.28.66,4.76,4.76,0,0,0-.07.86v5.43a4.35,4.35,0,0,0,.1.93,1.14,1.14,0,0,0,.34.63,1.22,1.22,0,0,0,1.44,0,1.32,1.32,0,0,0,.36-.66,4.47,4.47,0,0,0,.1-.95v-1.3h-1.2v-1.51H285v6.29h-1.63l-.16-1.1a2.25,2.25,0,0,1-.72.92A2.13,2.13,0,0,1,281.2,313.3Z" style="fill:#263238"></path><path d="M286.75,313.11V300.85h2.48v12.26Z" style="fill:#263238"></path><path d="M291.11,313.11V300.85h5.18v1.7h-2.68v3.31h2.27v1.74h-2.27v5.51Z" style="fill:#263238"></path><path d="M297.48,313.11V300.85h5.18v1.7H300v3.31h2.27v1.74H300v5.51Z" style="fill:#263238"></path><rect x="179.08" y="313.88" width="30.91" height="36.38" style="fill:#fff"></rect><path d="M210,350.76H179.08a.5.5,0,0,1-.5-.5V313.88a.5.5,0,0,1,.5-.5H210a.5.5,0,0,1,.5.5v36.38A.5.5,0,0,1,210,350.76Zm-30.41-1h29.91V314.38H179.58Z" style="fill:#263238"></path><rect x="180.43" y="315.46" width="28.21" height="33.21" style="fill:#fff"></rect><path d="M208.64,349.17H180.43a.5.5,0,0,1-.5-.5V315.46a.5.5,0,0,1,.5-.5h28.21a.51.51,0,0,1,.5.5v33.21A.5.5,0,0,1,208.64,349.17Zm-27.71-1h27.21V316H180.93Z" style="fill:#263238"></path><path d="M187.33,336.1a2.64,2.64,0,0,1-1.58-.42,2.27,2.27,0,0,1-.83-1.19,5.67,5.67,0,0,1-.25-1.78v-3.29a5.78,5.78,0,0,1,.26-1.82,2.11,2.11,0,0,1,.89-1.17,3.08,3.08,0,0,1,1.72-.42,3.29,3.29,0,0,1,1.67.36,2,2,0,0,1,.88,1,4,4,0,0,1,.27,1.53v.57h-2v-.69a4.75,4.75,0,0,0,0-.69.87.87,0,0,0-.23-.47.8.8,0,0,0-.56-.17.72.72,0,0,0-.58.21.92.92,0,0,0-.23.53,3.69,3.69,0,0,0,0,.68v4.36a3.23,3.23,0,0,0,.07.73,1,1,0,0,0,.27.51.86.86,0,0,0,.58.19.82.82,0,0,0,.58-.2,1,1,0,0,0,.28-.53,2.88,2.88,0,0,0,.08-.75v-1.05h-.95v-1.21h2.76v5h-1.31l-.12-.88a1.83,1.83,0,0,1-.58.74A1.73,1.73,0,0,1,187.33,336.1Z" style="fill:#263238"></path><path d="M191.77,336v-9.81h2V336Z" style="fill:#263238"></path><path d="M195.27,336v-9.81h4.14v1.35h-2.14v2.66h1.81v1.39h-1.81V336Z" style="fill:#263238"></path><path d="M200.37,336v-9.81h4.14v1.35h-2.14v2.66h1.82v1.39h-1.82V336Z" style="fill:#263238"></path><rect x="410.61" y="120.07" width="38.09" height="44.84" style="fill:#fff"></rect><path d="M448.7,165.41H410.61a.51.51,0,0,1-.5-.5V120.07a.5.5,0,0,1,.5-.5H448.7a.5.5,0,0,1,.5.5v44.84A.5.5,0,0,1,448.7,165.41Zm-37.59-1H448.2V120.57H411.11Z" style="fill:#263238"></path><rect x="412.28" y="122.03" width="34.77" height="40.93" style="fill:#638BDF"></rect><path d="M447.54,163.45H411.78V121.53h35.76Zm-34.76-1h33.76V122.53H412.78Z" style="fill:#263238"></path><path d="M420.78,147.46a3.26,3.26,0,0,1-1.94-.52,2.81,2.81,0,0,1-1-1.46,7.34,7.34,0,0,1-.3-2.21v-4a7,7,0,0,1,.31-2.24,2.69,2.69,0,0,1,1.1-1.45,3.86,3.86,0,0,1,2.13-.51,4.11,4.11,0,0,1,2.05.43,2.49,2.49,0,0,1,1.08,1.23,4.83,4.83,0,0,1,.33,1.88v.7h-2.4v-.85a5.17,5.17,0,0,0-.06-.84,1,1,0,0,0-.28-.58,1,1,0,0,0-.69-.21.92.92,0,0,0-.72.26,1.18,1.18,0,0,0-.28.65,5.53,5.53,0,0,0-.06.84v5.36a4.19,4.19,0,0,0,.09.91,1.19,1.19,0,0,0,.33.63,1,1,0,0,0,.71.22,1,1,0,0,0,.72-.24,1.24,1.24,0,0,0,.35-.64,4.44,4.44,0,0,0,.1-.94v-1.28h-1.18v-1.5h3.4v6.22h-1.61l-.15-1.09a2.22,2.22,0,0,1-.72.91A2.07,2.07,0,0,1,420.78,147.46Z" style="fill:#263238"></path><path d="M426.26,147.28v-12.1h2.45v12.1Z" style="fill:#263238"></path><path d="M430.56,147.28v-12.1h5.11v1.67H433v3.27h2.24v1.72H433v5.44Z" style="fill:#263238"></path><path d="M436.85,147.28v-12.1H442v1.67h-2.65v3.27h2.24v1.72h-2.24v5.44Z" style="fill:#263238"></path></g></svg>
